<?xml version="1.0" standalone="no"?>
<!DOCTYPE svg PUBLIC "-//W3C//DTD SVG 20010904//EN"
 "http://www.w3.org/TR/2001/REC-SVG-20010904/DTD/svg10.dtd">
<svg version="1.0" xmlns="http://www.w3.org/2000/svg"
 width="742.000000pt" height="1280.000000pt" viewBox="0 0 742.000000 1280.000000"
 preserveAspectRatio="xMidYMid meet">
<metadata>
Created by potrace 1.15, written by Peter Selinger 2001-2017
</metadata>
<g transform="translate(0.000000,1280.000000) scale(0.100000,-0.100000)"
fill="#000000" stroke="none">
<path d="M3619 12777 c-56 -37 -69 -76 -69 -204 l0 -113 -156 0 -157 0 -33
-36 c-33 -34 -34 -38 -34 -114 0 -77 1 -80 35 -115 l36 -35 154 0 155 0 0
-180 0 -180 -28 0 -28 0 0 -98 c1 -94 -1 -101 -38 -176 -21 -43 -56 -95 -77
-116 -38 -36 -40 -42 -46 -117 -3 -44 -2 -110 2 -148 6 -60 11 -72 46 -110 98
-106 148 -320 116 -492 -9 -46 -20 -90 -25 -98 -6 -11 -21 53 -48 197 l-39
213 -5 -290 c-5 -296 -13 -352 -44 -326 -9 8 -20 0 -43 -30 l-31 -40 -11 33
c-5 18 -44 159 -86 313 -42 154 -78 285 -80 290 -8 22 -3 -56 24 -415 l29
-375 -25 -33 c-13 -18 -27 -30 -31 -28 -4 2 -72 182 -152 399 -80 217 -146
394 -147 393 -2 -1 31 -215 72 -475 73 -460 83 -537 68 -527 -5 2 -102 209
-218 459 -115 250 -211 454 -213 453 -1 -2 50 -217 114 -480 64 -262 114 -479
111 -482 -3 -3 -10 -3 -15 0 -5 3 -117 195 -248 425 -131 231 -240 418 -241
417 -2 -2 53 -171 122 -376 69 -205 123 -376 120 -378 -2 -3 -28 4 -57 14
l-53 19 -200 292 c-110 161 -203 295 -207 298 -3 4 48 -119 114 -272 l120
-278 -18 -73 c-10 -40 -20 -75 -23 -76 -5 -3 -380 452 -445 539 -19 25 -21 12
-2 -18 8 -12 98 -181 201 -376 167 -315 186 -357 180 -387 -3 -19 -9 -34 -13
-33 -4 0 -86 83 -182 184 -254 267 -454 472 -442 455 11 -17 500 -782 539
-843 13 -21 20 -38 15 -36 -6 2 -173 147 -371 322 -460 405 -438 388 -375 307
138 -177 534 -699 534 -704 0 -3 -10 -6 -23 -6 -15 0 -154 97 -383 268 -198
148 -367 272 -375 277 -13 9 28 -38 368 -414 72 -80 131 -147 130 -148 -1 -1
-36 -3 -77 -4 l-75 -3 -265 165 c-146 91 -272 169 -280 174 -19 10 -36 26 252
-244 195 -183 238 -228 242 -254 9 -60 13 -97 8 -97 -4 0 -271 137 -540 277
-78 41 -142 73 -142 71 0 -2 159 -130 354 -284 259 -204 355 -286 359 -304 3
-14 4 -26 2 -28 -3 -3 -555 223 -840 343 -22 10 -38 15 -35 12 3 -3 205 -138
450 -301 245 -163 441 -296 436 -296 -8 0 -86 25 -726 230 -151 49 -276 88
-277 86 -2 -2 175 -101 392 -221 l396 -219 -32 -17 c-29 -14 -39 -15 -88 -3
-31 7 -216 49 -411 94 -195 45 -359 84 -365 87 -7 4 -7 2 0 -4 6 -6 143 -70
305 -143 162 -73 301 -136 309 -140 11 -6 -3 -17 -46 -39 -34 -17 -63 -35 -65
-42 -3 -8 -88 1 -292 31 -158 23 -289 40 -291 38 -2 -2 148 -57 333 -122 185
-65 343 -123 350 -129 12 -9 52 -79 52 -90 0 -2 -10 -3 -23 -1 -12 2 -182 13
-377 24 -195 11 -368 22 -385 25 -75 10 36 -21 455 -131 401 -105 459 -124
460 -145 0 -4 -172 -9 -382 -13 -375 -6 -618 -16 -568 -24 59 -9 986 -172 995
-176 6 -2 -1 -6 -15 -9 -24 -6 -980 -107 -1009 -107 -8 0 -12 -2 -10 -4 2 -2
195 -21 429 -41 234 -21 427 -40 430 -42 2 -2 -12 -19 -31 -38 l-34 -35 -385
-72 -385 -73 245 -6 c135 -3 278 -7 319 -8 l74 -1 -22 -24 -22 -23 41 -31 c23
-16 38 -32 33 -34 -4 -3 -146 -42 -315 -89 -170 -46 -296 -85 -280 -87 15 -1
192 10 394 26 l367 27 33 -27 c18 -14 31 -28 28 -30 -3 -3 -50 -21 -105 -41
-361 -130 -681 -250 -685 -254 -3 -3 9 -3 26 0 100 19 928 147 951 147 16 0
23 -4 17 -9 -5 -5 -210 -103 -456 -217 -246 -114 -446 -209 -445 -211 2 -1 59
11 128 28 68 17 241 59 384 94 143 35 300 73 348 85 87 21 105 22 93 1 -4 -6
-195 -117 -424 -247 -229 -131 -421 -241 -426 -245 -5 -5 165 50 378 121 384
128 388 129 381 103 -20 -80 -24 -84 -321 -288 -252 -172 -337 -233 -299 -213
6 3 133 58 284 123 l274 117 61 -17 c34 -10 66 -20 73 -24 7 -4 -96 -94 -258
-226 -149 -121 -273 -223 -276 -228 -2 -4 24 8 59 27 35 19 204 109 376 200
282 150 317 166 348 160 19 -3 34 -10 32 -13 -2 -4 -133 -132 -293 -285 -159
-154 -306 -295 -325 -314 -42 -43 -89 -71 385 233 198 127 386 248 419 269 32
20 56 33 55 27 -2 -6 -144 -169 -315 -363 -362 -412 -384 -437 -364 -422 8 7
180 138 382 293 202 154 370 281 373 281 3 0 5 -11 5 -24 0 -15 -94 -150 -266
-382 -147 -198 -272 -366 -278 -374 -14 -19 30 20 312 274 128 116 237 212
242 214 4 2 10 -29 12 -69 l3 -73 -168 -270 c-93 -149 -171 -275 -174 -281 -8
-15 23 17 255 266 225 240 223 239 315 239 l28 0 -122 -237 c-67 -131 -146
-285 -177 -343 -30 -58 -49 -100 -43 -94 6 6 134 165 284 354 205 259 279 346
300 351 15 4 27 5 27 2 0 -4 -159 -392 -305 -743 -31 -74 -52 -130 -47 -125 6
6 141 207 301 448 160 241 291 435 291 432 0 -9 -299 -945 -311 -974 -5 -13
-8 -25 -6 -28 3 -2 100 170 217 382 117 212 216 388 221 390 4 3 14 -7 22 -22
13 -26 6 -61 -83 -448 -54 -231 -97 -421 -96 -422 2 -2 62 131 136 295 73 163
138 308 145 322 12 24 13 23 44 -37 16 -34 35 -63 42 -65 7 -2 -2 -90 -31
-292 -23 -158 -40 -289 -38 -291 1 -2 57 150 123 338 l120 341 45 28 c45 29
45 29 48 7 4 -21 -34 -675 -43 -754 -8 -77 14 -3 106 350 50 193 92 351 93
353 2 1 6 -442 10 -985 3 -544 10 -1013 14 -1044 6 -43 16 -65 41 -95 157
-178 153 -580 -6 -746 -39 -40 -52 -85 -53 -183 l0 -60 -328 -242 -329 -242
-334 -3 -334 -3 -45 -30 c-29 -20 -54 -48 -73 -85 -26 -51 -32 -56 -78 -66
-57 -13 -111 -52 -153 -111 -22 -32 -29 -56 -33 -107 -9 -109 39 -200 131
-249 l41 -22 1865 -3 c1387 -2 1875 0 1905 9 134 38 214 187 171 316 -9 27
-30 65 -46 85 -39 47 -121 88 -176 88 -40 0 -43 2 -54 36 -16 49 -66 103 -115
125 -36 17 -73 19 -370 19 l-330 1 -300 222 -300 223 -6 116 -6 117 -42 46
c-138 150 -164 449 -60 672 16 34 41 71 56 83 18 14 29 35 35 68 4 26 12 466
17 977 6 512 10 931 10 933 1 2 11 -4 23 -13 22 -15 24 -14 55 22 24 29 33 34
37 23 3 -8 44 -152 90 -320 47 -168 85 -294 85 -280 0 14 -12 194 -28 400
l-28 375 25 33 c14 18 28 29 32 25 4 -4 72 -185 151 -401 79 -216 145 -389
146 -385 1 5 -33 226 -76 493 -71 447 -81 526 -61 503 4 -4 101 -211 216 -460
115 -248 210 -450 211 -449 2 2 -49 214 -112 473 -63 259 -115 475 -115 481 0
39 54 -46 266 -418 131 -231 239 -418 241 -416 1 1 -53 170 -122 376 -69 206
-123 375 -122 377 2 2 28 -5 57 -15 l54 -19 205 -300 c114 -165 207 -300 208
-299 1 1 -52 127 -119 281 l-120 280 17 70 c10 39 19 73 22 78 2 4 106 -118
230 -270 124 -153 228 -280 231 -283 3 -3 -17 38 -45 90 -369 695 -355 668
-346 707 l8 36 309 -321 c275 -287 329 -341 313 -314 -3 4 -129 200 -281 437
-151 236 -273 431 -271 433 2 2 176 -149 387 -335 211 -187 389 -343 396 -347
6 -4 -119 163 -278 371 -256 334 -287 379 -270 387 21 9 18 11 504 -351 142
-107 260 -192 261 -191 1 2 -110 126 -246 277 -137 151 -249 278 -249 282 0 5
33 9 74 9 l74 0 271 -170 c149 -93 271 -166 270 -162 0 4 -83 84 -184 177
-101 94 -211 195 -245 226 -59 56 -61 59 -68 123 -5 36 -6 66 -2 66 3 0 14 -6
25 -13 40 -27 659 -338 638 -320 -12 10 -173 137 -357 283 -307 243 -364 295
-343 316 3 3 507 -202 786 -320 47 -20 86 -35 87 -33 1 1 -197 135 -441 297
-244 162 -442 296 -441 297 1 1 162 -49 357 -111 313 -100 595 -190 639 -203
27 -9 -62 42 -424 242 l-359 198 38 15 c37 15 49 13 434 -76 218 -51 407 -95
421 -99 14 -3 23 -4 20 -1 -3 3 -144 67 -315 143 -170 76 -313 141 -317 145
-4 3 19 19 52 35 36 18 58 35 55 43 -6 16 -21 18 312 -31 160 -24 289 -39 287
-35 -3 4 -11 8 -17 8 -7 0 -162 54 -346 119 l-334 118 -24 46 -23 47 24 0 c34
0 671 -39 736 -45 38 -3 49 -2 35 4 -11 5 -220 62 -465 126 -244 64 -448 121
-452 128 -12 18 -10 23 10 23 9 1 230 4 490 9 260 4 470 10 468 12 -3 3 -78
18 -168 33 -640 110 -815 142 -833 149 -17 7 -15 9 15 15 19 3 251 29 514 56
264 27 480 51 482 53 1 1 -189 20 -424 41 -235 21 -428 39 -430 40 -1 2 13 19
30 39 l33 36 385 72 c212 39 387 73 389 75 2 2 -141 4 -318 4 l-322 0 20 28
20 29 -41 31 -40 31 39 10 c333 91 603 170 583 170 -14 0 -194 -13 -400 -28
l-375 -29 -33 25 c-19 14 -30 29 -25 33 7 7 157 62 608 226 83 30 159 59 170
65 24 11 50 15 -520 -76 -407 -65 -488 -75 -470 -57 5 6 262 126 682 319 128
59 231 109 229 110 -2 2 -160 -35 -352 -82 -470 -116 -592 -145 -604 -145 -38
0 52 57 420 266 230 131 418 240 416 241 -1 1 -170 -53 -376 -122 -206 -69
-376 -123 -378 -120 -3 2 4 28 14 57 l19 52 290 198 c160 110 294 203 298 207
5 5 -117 -45 -270 -111 l-278 -120 -73 18 c-40 10 -75 20 -76 23 -3 5 356 301
539 446 l20 16 -20 -9 c-11 -5 -183 -96 -383 -202 -326 -172 -367 -191 -398
-186 -19 4 -34 10 -33 14 0 4 79 81 174 172 96 91 243 231 327 313 l153 147
-435 -278 c-239 -153 -441 -282 -449 -286 -8 -6 -12 -5 -10 1 2 6 150 176 329
379 377 427 382 433 320 383 -109 -86 -719 -549 -724 -549 -3 0 -6 10 -6 23 0
14 99 156 268 382 147 198 272 367 277 375 5 8 -53 -41 -129 -110 -76 -69
-202 -182 -280 -252 -77 -71 -144 -128 -148 -128 -3 0 -8 30 -10 68 l-4 67
160 260 c198 323 192 312 179 300 -5 -5 -112 -119 -237 -252 -238 -255 -225
-245 -323 -256 -18 -2 -33 -2 -33 0 0 2 288 563 342 666 5 9 7 17 5 17 -1 0
-129 -159 -282 -354 -206 -261 -287 -355 -305 -359 -14 -3 -26 -4 -28 -2 -3 3
155 389 343 840 10 22 15 38 12 35 -2 -3 -138 -205 -302 -450 -163 -245 -295
-436 -292 -425 5 23 219 691 277 869 38 114 45 155 20 104 -7 -12 -105 -191
-218 -396 l-206 -374 -16 33 c-10 18 -15 39 -13 48 16 64 190 826 189 828 -1
1 -66 -142 -145 -317 -79 -176 -145 -320 -147 -320 -2 0 -17 27 -34 60 -17 34
-35 58 -40 55 -14 -9 -14 -1 30 297 22 150 40 280 40 288 -1 8 -56 -142 -124
-333 -68 -192 -126 -350 -127 -351 -2 -2 -23 -13 -46 -25 l-43 -21 0 33 c0 39
37 658 44 732 3 34 2 44 -4 30 -7 -16 -236 -880 -241 -912 -1 -4 -8 69 -14
162 -7 94 -18 199 -24 235 -6 36 -11 155 -12 265 -1 315 -7 327 -48 87 -19
-110 -37 -206 -41 -212 -4 -7 -15 21 -25 60 -46 189 2 439 104 540 47 46 56
92 49 246 -4 88 -6 96 -32 121 -39 36 -89 117 -116 188 -19 51 -21 72 -16 138
l6 77 -25 0 -25 0 0 180 0 180 145 0 c165 0 192 8 219 64 20 41 21 125 2 169
-25 60 -47 67 -215 67 l-149 0 -3 123 c-4 110 -6 125 -28 156 -44 61 -123 78
-182 38z"/>
</g>
</svg>
